<?xml version="1.0" standalone="no"?>
<!DOCTYPE svg PUBLIC "-//W3C//DTD SVG 20010904//EN"
 "http://www.w3.org/TR/2001/REC-SVG-20010904/DTD/svg10.dtd">
<svg version="1.0" xmlns="http://www.w3.org/2000/svg"
 width="300.000000pt" height="264.000000pt" viewBox="0 0 300.000000 264.000000"
 preserveAspectRatio="xMidYMid meet">
<metadata>
Created by potrace 1.10, written by Peter Selinger 2001-2011
</metadata>
<g transform="translate(0.000000,264.000000) scale(0.100000,-0.100000)"
fill="#000000" stroke="none">
<path d="M1325 2265 c-25 -26 -43 -50 -40 -54 4 -3 20 11 37 32 36 44 48 47
49 10 0 -16 5 -37 10 -48 6 -13 7 0 3 40 -4 33 -8 62 -10 64 -1 1 -23 -18 -49
-44z"/>
<path d="M1328 2214 c-5 -4 -8 -79 -8 -167 0 -137 -2 -158 -15 -153 -8 3 -43
-4 -77 -16 -39 -12 -89 -21 -130 -21 -38 0 -68 -4 -68 -9 0 -4 11 -6 25 -2 15
4 25 2 25 -5 0 -6 -8 -11 -17 -11 -10 0 -42 -11 -71 -25 -30 -14 -66 -25 -80
-26 -15 0 -21 -3 -14 -6 11 -4 -105 -83 -122 -83 -3 0 -14 -7 -23 -15 -10 -8
-60 -46 -112 -84 -140 -104 -221 -180 -279 -264 -29 -41 -52 -80 -52 -86 0 -7
-34 -12 -92 -13 l-93 -2 84 -3 c81 -4 83 -5 76 -26 -4 -12 -17 -57 -28 -99
l-22 -78 -42 0 c-24 0 -43 -3 -43 -7 0 -5 257 -7 572 -5 314 1 577 1 582 -1 8
-3 9 -141 6 -453 -3 -247 -2 -453 3 -458 4 -6 8 105 9 245 1 139 2 272 3 294
1 22 3 113 3 201 l2 162 28 7 c15 4 267 3 559 -1 445 -6 530 -9 515 -20 -28
-22 6 -17 38 6 27 19 48 17 31 -4 -17 -21 -59 -106 -53 -106 4 0 23 30 42 66
l35 65 152 -3 c84 -2 149 0 145 4 -4 4 -75 9 -157 10 l-150 3 -7 90 c-8 109
-36 287 -46 295 -5 3 -18 25 -31 50 -28 56 -95 125 -188 196 -117 88 -397 210
-518 225 -38 4 -104 13 -145 18 -41 5 -112 8 -157 5 l-83 -5 -2 162 c-2 88 -6
157 -10 153z m372 -344 c80 -13 149 -30 155 -39 2 -3 -113 -2 -255 3 -211 7
-260 12 -265 23 -12 32 6 36 149 30 78 -3 175 -11 216 -17z m-380 -11 c0 -15
-4 -19 -16 -15 -9 3 -39 6 -67 7 l-52 1 40 13 c64 21 95 19 95 -6z m-24 -27
c19 -3 24 -10 24 -34 l0 -30 -57 5 c-32 4 -109 6 -172 7 -63 0 -112 3 -109 6
4 3 35 16 70 29 61 23 174 31 244 17z m480 -17 c100 -3 144 -9 185 -25 93 -35
92 -40 -11 -35 -111 5 -456 15 -551 15 l-66 0 1 31 1 31 155 -6 c85 -4 214 -9
286 -11z m-513 -55 l57 0 0 -44 0 -44 -157 4 c-87 3 -197 6 -246 7 -48 1 -87
7 -88 12 0 6 26 25 58 43 l58 33 130 -5 c72 -3 156 -6 188 -6z m552 -16 c281
-6 297 -10 375 -68 l35 -27 -120 6 c-66 3 -267 8 -447 11 l-326 6 0 45 0 44
111 -5 c62 -3 229 -8 372 -12z m-828 -76 c93 -1 205 -4 251 -6 l82 -4 0 -50 0
-51 -262 7 c-145 4 -296 9 -335 12 -46 4 -73 3 -73 -4 0 -8 320 -22 627 -26
l43 -1 0 -108 0 -108 -152 5 c-84 3 -291 9 -460 12 -170 4 -308 10 -308 14 0
9 156 151 215 196 90 69 179 125 191 120 8 -3 89 -6 181 -8z m703 -18 c162 -5
354 -10 427 -11 l132 -1 58 -54 58 -53 -80 -1 c-44 0 -144 3 -222 7 -130 6
-143 8 -143 25 0 24 -12 23 -35 -2 -18 -20 -26 -20 -249 -14 -334 8 -300 1
-304 63 l-3 51 33 0 c18 0 166 -5 328 -10z m93 -120 l79 0 -7 -29 c-5 -23 -2
-32 17 -45 26 -18 38 -20 38 -6 0 6 -9 10 -21 10 -20 0 -20 1 6 32 l27 32 211
-3 c117 -1 222 -5 234 -8 20 -4 69 -70 60 -79 -8 -8 -578 -5 -806 5 -135 6
-255 8 -268 5 -22 -6 -23 -4 -23 46 l0 53 188 -6 c103 -4 222 -7 265 -7z m-68
-110 c72 -5 263 -12 425 -16 199 -4 299 -10 307 -18 7 -6 16 -26 19 -45 l7
-33 -259 6 c-142 3 -400 9 -571 12 l-313 7 0 48 0 49 128 0 c70 -1 186 -5 257
-10z m-722 -96 l327 -6 0 -55 0 -54 -297 6 c-164 3 -389 8 -500 11 l-203 6 11
22 c7 11 22 35 35 52 l23 31 138 -3 c76 -2 285 -6 466 -10z m1002 -19 c88 -3
231 -5 318 -5 103 0 156 -3 152 -10 -3 -5 -2 -10 3 -10 6 0 12 -20 13 -44 l4
-44 -190 4 c-516 10 -765 12 -761 5 3 -4 218 -11 477 -14 260 -4 473 -8 474
-9 2 -2 6 -18 10 -37 l7 -34 -383 6 c-211 4 -475 7 -586 7 l-203 0 0 41 0 41
90 -4 c50 -3 93 -1 96 4 3 4 -38 8 -90 8 l-96 0 0 55 0 55 253 -5 c138 -3 324
-7 412 -10z m-1240 -99 c226 -3 445 -6 488 -6 l77 0 0 -41 0 -41 -517 8 c-285
3 -519 8 -521 9 -2 1 4 21 13 43 11 28 21 39 33 36 9 -1 202 -5 427 -8z m257
-96 l308 0 -2 -45 -2 -45 -534 0 c-459 0 -533 2 -529 14 3 8 9 31 13 51 l7 37
216 -6 c119 -3 354 -5 523 -6z m1476 -15 c6 -3 12 -16 12 -30 0 -28 0 -28 -34
-15 -15 5 -26 6 -26 1 0 -5 12 -14 28 -20 19 -7 -149 -9 -555 -8 l-583 2 0 42
0 42 573 -5 c314 -3 578 -7 585 -9z"/>
<path d="M538 1458 c-13 -3 49 -6 137 -5 171 0 168 5 -7 9 -59 2 -118 0 -130
-4z"/>
<path d="M1148 1443 c17 -2 47 -2 65 0 17 2 3 4 -33 4 -36 0 -50 -2 -32 -4z"/>
<path d="M1510 2208 c0 -2 7 -21 14 -43 l14 -39 -42 -37 c-22 -20 -38 -40 -34
-44 4 -4 22 10 40 30 l32 38 14 -33 c16 -39 27 -35 12 5 -12 31 5 59 41 70 11
4 19 11 19 16 0 6 -15 1 -34 -10 -18 -12 -36 -21 -39 -21 -2 0 -8 16 -11 35
-4 19 -11 35 -16 35 -6 0 -10 -1 -10 -2z"/>
<path d="M2545 1450 c-3 -5 1 -10 10 -10 25 0 29 -27 6 -56 -26 -33 -27 -50
-1 -64 22 -12 23 -11 35 44 3 16 14 30 25 33 29 8 24 21 -5 15 -22 -4 -25 -1
-25 22 0 19 -5 26 -19 26 -11 0 -23 -4 -26 -10z"/>
<path d="M1426 964 c-19 -18 -20 -28 -6 -55 14 -25 52 -24 75 1 39 43 -28 95
-69 54z m59 -11 c16 -16 16 -18 -4 -34 -36 -29 -77 4 -45 36 20 19 29 19 49
-2z"/>
<path d="M1851 921 c-8 -5 -17 -31 -22 -57 -11 -70 -11 -116 1 -109 6 3 10 17
10 31 0 43 57 26 83 -25 7 -14 18 -26 25 -29 20 -6 -13 55 -37 70 -18 11 -18
12 4 30 33 26 40 55 19 79 -18 20 -59 25 -83 10z m77 -33 c5 -26 -41 -68 -67
-61 -16 4 -20 11 -15 27 3 11 8 29 11 39 6 24 66 20 71 -5z"/>
</g>
</svg>
