<svg xmlns="http://www.w3.org/2000/svg" xmlns:xlink="http://www.w3.org/1999/xlink" x="0" y="0" width="661.4699096679688" height="211.27316284179688" style="
        width:661.4699096679688px;
        height:211.27316284179688px;
        background: transparent;
        fill: none;
">
        
        
        <svg xmlns="http://www.w3.org/2000/svg" class="role-diagram-draw-area"><g class="shapes-region" style="stroke: black; fill: none;"><g/></g><g><g class="connection-group"><g class="arrow-line"><path class="connection real" stroke-dasharray="" d="  M168,71 L276,71" style="stroke: rgb(0, 0, 0); stroke-width: 1; fill: none; fill-opacity: 1;"/><g stroke="#000" transform="matrix(-1,1.2246467991473532e-16,-1.2246467991473532e-16,-1,278,71)" style="stroke: rgb(0, 0, 0); stroke-width: 1;"><path d=" M10.93,-3.29 Q4.96,-0.45 0,0 Q4.96,0.45 10.93,3.29"/></g></g></g><g class="connection-group"><g class="arrow-line"><path class="connection real" stroke-dasharray="" d="  M156.72,84 C166.77,114.33 166.9,143.75 157.1,172.26" style="stroke: rgb(0, 0, 0); stroke-width: 1; fill: none; fill-opacity: 1;"/><g stroke="#000" transform="matrix(0.33742387309574173,-0.9413528190137154,0.9413528190137154,0.33742387309574173,156.4884922254095,173.9999999999941)" style="stroke: rgb(0, 0, 0); stroke-width: 1;"><path d=" M10.93,-3.29 Q4.96,-0.45 0,0 Q4.96,0.45 10.93,3.29"/></g></g></g><g class="connection-group"><g class="arrow-line"><path class="connection real" stroke-dasharray="" d="  M163.25,174 L276.46,80.53" style="stroke: rgb(0, 0, 0); stroke-width: 1; fill: none; fill-opacity: 1;"/><g stroke="#000" transform="matrix(-0.771180329013804,0.6366167608083855,-0.6366167608083855,-0.771180329013804,278.00000000000006,79.25622775800711)" style="stroke: rgb(0, 0, 0); stroke-width: 1;"><path d=" M10.93,-3.29 Q4.96,-0.45 0,0 Q4.96,0.45 10.93,3.29"/></g></g></g><g class="connection-group"><g class="arrow-line"><path class="connection real" stroke-dasharray="" d="  M170,33 L276,33" style="stroke: rgb(0, 0, 0); stroke-width: 1; fill: none; fill-opacity: 1;"/><g stroke="#000" transform="matrix(-1,1.2246467991473532e-16,-1.2246467991473532e-16,-1,278,33.00000000000001)" style="stroke: rgb(0, 0, 0); stroke-width: 1;"><path d=" M10.93,-3.29 Q4.96,-0.45 0,0 Q4.96,0.45 10.93,3.29"/></g></g></g><g class="connection-group"><g class="arrow-line"><path class="connection real" stroke-dasharray="" d="  M136.32,174 C119.9,144.34 119.77,114.79 135.92,85.35" style="stroke: rgb(0, 0, 0); stroke-width: 1; fill: none; fill-opacity: 1;"/><g stroke="#000" transform="matrix(-0.49211971865832527,0.8705275311600724,-0.8705275311600724,-0.49211971865832527,136.6675222007824,84.00000000000091)" style="stroke: rgb(0, 0, 0); stroke-width: 1;"><path d=" M10.93,-3.29 Q4.96,-0.45 0,0 Q4.96,0.45 10.93,3.29"/></g></g></g><g class="connection-group"><g class="arrow-line"><path class="connection real" stroke-dasharray="" d="  M207,187.36 Q209.52,184.88 212,187.4 Q214.49,189.91 217,187.43 Q219.51,184.95 222,187.46 Q224.49,189.97 227,187.49 Q229.51,185.01 232,187.52 Q234.49,190.03 237,187.55 Q239.51,185.07 242,187.58 Q244.49,190.09 247,187.61 Q249.51,185.13 252,187.64 Q254.49,190.15 257,187.67 Q259.51,185.19 262,187.7 Q264.49,190.21 267,187.73 Q269.51,185.25 272,187.76 Q274.49,190.27 277,187.79 Q279.51,185.31 282,187.82 Q284.49,190.33 287,187.85 Q289.52,185.37 292,187.89 Q294.49,190.4 297,187.92 Q299.51,185.44 302,187.95 Q304.49,190.46 307,187.98 Q309.51,185.5 312,188.01 Q314.49,190.52 317,188.04 Q319.51,185.56 322,188.07 Q324.49,190.58 327,188.1 Q329.51,185.62 332,188.13 Q334.49,190.64 337,188.16 Q339.51,185.68 342,188.19 Q344.49,190.7 347,188.22 Q349.51,185.74 352,188.25 Q354.49,190.76 357,188.28 Q359.51,185.8 362,188.31 Q364.49,190.82 367,188.34 Q369.52,185.86 372,188.38 Q374.49,190.89 377,188.41 L378,188.41 L386,188.46" style="stroke: rgb(0, 0, 0); stroke-width: 1; fill: none; fill-opacity: 1;"/><g stroke="#000" transform="matrix(-0.9999813422410571,-0.006108614390677859,0.006108614390677859,-0.9999813422410571,388,188.47320061255743)" style="stroke: rgb(0, 0, 0); stroke-width: 1;"><path d=" M10.93,-3.29 Q4.96,-0.45 0,0 Q4.96,0.45 10.93,3.29"/></g></g></g><g class="connection-group"><g class="arrow-line"><path class="connection real" stroke-dasharray="" d="  M297,33.87 Q299.72,31.61 301.98,34.33 Q304.25,37.04 306.96,34.78 Q309.68,32.52 311.94,35.24 Q314.2,37.96 316.92,35.7 Q319.63,33.44 321.9,36.15 Q324.15,38.87 326.87,36.61 Q329.58,34.35 331.85,37.06 Q334.11,39.78 336.83,37.52 Q339.55,35.26 341.81,37.98 Q344.08,40.69 346.79,38.43 Q349.51,36.17 351.77,38.89 Q354.03,41.61 356.75,39.35 Q359.46,37.09 361.73,39.8 Q363.99,42.52 366.71,40.26 Q369.43,38 371.69,40.72 Q373.96,43.43 376.67,41.17 Q379.39,38.91 381.65,41.63 Q383.91,44.34 386.62,42.08 Q389.34,39.82 391.6,42.54 Q393.86,45.26 396.58,43 Q399.29,40.74 401.56,43.45 Q403.82,46.17 406.54,43.91 Q409.26,41.65 411.52,44.37 Q413.79,47.08 416.5,44.82 Q419.22,42.56 421.48,45.28 Q423.75,47.99 426.46,45.73 Q429.18,43.47 431.44,46.19 Q433.7,48.91 436.42,46.65 L438.04,46.8 L446.01,47.53" style="stroke: rgb(0, 0, 0); stroke-width: 1; fill: none; fill-opacity: 1;"/><g stroke="#000" transform="matrix(-0.9958208824527701,-0.09132781652369776,0.09132781652369776,-0.9958208824527701,447.99999999999994,47.70889487870619)" style="stroke: rgb(0, 0, 0); stroke-width: 1;"><path d=" M10.93,-3.29 Q4.96,-0.45 0,0 Q4.96,0.45 10.93,3.29"/></g></g></g><g class="connection-group"><g class="arrow-line"><path class="connection real" stroke-dasharray="" d="  M298,69.86 Q300.2,67.1 302.97,69.3 Q305.73,71.5 307.94,68.74 Q310.13,65.97 312.9,68.17 Q315.66,70.37 317.87,67.61 Q320.08,64.85 322.84,67.05 Q325.61,69.25 327.81,66.48 Q330.02,63.72 332.78,65.92 Q335.55,68.12 337.74,65.35 Q339.95,62.59 342.71,64.79 Q345.47,66.99 347.68,64.23 Q349.88,61.46 352.65,63.66 Q355.41,65.86 357.62,63.1 Q359.82,60.33 362.59,62.53 Q365.35,64.73 367.55,61.97 Q369.76,59.21 372.52,61.41 Q375.29,63.61 377.49,60.84 Q379.7,58.08 382.46,60.28 Q385.23,62.48 387.43,59.71 Q389.63,56.95 392.39,59.15 Q395.15,61.35 397.36,58.59 Q399.56,55.82 402.33,58.02 Q405.09,60.22 407.3,57.46 Q409.5,54.69 412.27,56.89 Q415.03,59.09 417.23,56.33 Q419.44,53.57 422.2,55.77 Q424.97,57.97 427.17,55.2 Q429.38,52.44 432.14,54.64 Q434.91,56.84 437.11,54.07 L438.06,53.97 L446.01,53.06" style="stroke: rgb(0, 0, 0); stroke-width: 1; fill: none; fill-opacity: 1;"/><g stroke="#000" transform="matrix(-0.9936113105200084,0.11285638487348212,-0.11285638487348212,-0.9936113105200084,448,52.83783783783784)" style="stroke: rgb(0, 0, 0); stroke-width: 1;"><path d=" M10.93,-3.29 Q4.96,-0.45 0,0 Q4.96,0.45 10.93,3.29"/></g></g></g><g class="connection-group"><g class="arrow-line"><path class="connection real" stroke-dasharray="" d="  M473.91,176 L473.1,64" style="stroke: rgb(0, 0, 0); stroke-width: 1; fill: none; fill-opacity: 1;"/><g stroke="#000" transform="matrix(0.007155788862700713,0.9999743970151198,-0.9999743970151198,0.007155788862700713,473.0863309352518,62)" style="stroke: rgb(0, 0, 0); stroke-width: 1;"><path d=" M10.93,-3.29 Q4.96,-0.45 0,0 Q4.96,0.45 10.93,3.29"/></g></g></g></g><g/><g/></svg>
        <svg xmlns="http://www.w3.org/2000/svg" xmlns:xlink="http://www.w3.org/1999/xlink" width="659.9884643554688" height="209.7916717529297" style="width:659.9884643554688px;height:209.7916717529297px;font-family:Asana-Math, Asana;background:transparent;"><g><g><g><g transform="matrix(1,0,0,1,131.72454833984375,75.99305725097656)"><path transform="matrix(0.017,0,0,-0.017,0,0)" d="M934 662L934 692C889 691 854 689 814 689C778 689 738 691 698 692L698 662L742 659C785 655 793 651 793 569L793 102L789 102L312 692C294 691 276 689 258 689L138 689C96 689 51 691 17 692L17 662L61 659C102 656 112 648 112 569L112 120C112 41 102 31 61 29L17 27L17 -3C51 -2 96 -2 138 -1C178 -1 218 0 254 0C294 0 329 -2 374 -3L374 27L329 29C286 31 279 41 279 120L279 581L281 581L752 0L839 0L839 569C839 653 848 655 889 659ZM189 31C163 34 158 46 158 120L158 569C158 643 163 655 189 658C227 654 233 648 233 569L233 120C233 40 226 35 189 31Z" stroke="rgb(0,0,0)" stroke-opacity="1" stroke-width="8" fill="rgb(0,0,0)" fill-opacity="1"></path></g></g><g><g><g><g><g transform="matrix(1,0,0,1,148.40280151367188,79.73564758300782)"><path transform="matrix(0.0119,0,0,-0.0119,0,0)" d="M604 0L604 59L166 264L604 469L604 528L65 273L65 252ZM692 388L699 368L731 389C768 412 771 414 778 414C789 414 796 404 796 389C796 338 755 145 714 2L721 -9C746 -2 769 4 791 8C810 134 831 199 877 268C931 352 1006 414 1051 414C1062 414 1068 405 1068 390C1068 372 1065 351 1057 319L1005 107C996 70 992 47 992 31C992 6 1003 -9 1022 -9C1048 -9 1084 12 1182 85L1172 103L1146 86C1117 67 1095 56 1085 56C1078 56 1072 65 1072 76C1072 81 1073 92 1074 96L1140 372C1147 401 1151 429 1151 446C1151 469 1140 482 1120 482C1078 482 1009 444 950 389C912 354 884 320 832 247L870 408C874 426 876 438 876 449C876 470 868 482 853 482C832 482 793 460 720 408Z" stroke="rgb(0,0,0)" stroke-opacity="1" stroke-width="8" fill="rgb(0,0,0)" fill-opacity="1"></path></g></g></g></g></g></g></g><g><g><g><g transform="matrix(1,0,0,1,281.72454833984375,76.98843383789062)"><path transform="matrix(0.017,0,0,-0.017,0,0)" d="M416 25L416 -3C464 -1 509 0 551 0C591 0 636 -1 684 -3L684 25L659 27C618 30 605 37 591 61L420 368L641 620C671 653 680 659 706 662L734 664L734 692L620 689C608 689 594 689 505 692L505 664L538 662C570 660 583 655 583 643C583 632 578 623 560 601L399 405L295 604C286 622 281 634 281 642C281 654 294 660 324 662L361 664L361 692L315 691C274 690 244 689 228 689C211 689 181 690 140 691L95 692L95 664L121 662C170 657 182 650 202 613L348 343L110 61C95 43 72 31 48 28L20 25L20 -3C69 -1 110 0 145 0C181 0 221 -1 264 -3L264 25L232 28C194 32 177 38 177 50C177 58 181 67 187 75L369 306L488 80C497 62 502 49 502 40C502 32 495 29 470 29L454 28Z" stroke="rgb(0,0,0)" stroke-opacity="1" stroke-width="8" fill="rgb(0,0,0)" fill-opacity="1"></path></g></g></g></g><g><g><g><g transform="matrix(1,0,0,1,101.72454833984375,123.99075317382812)"><path transform="matrix(0.017,0,0,-0.017,0,0)" d="M400 -16C446 -16 513 54 545 84L545 97L532 97C513 79 489 55 462 55C417 55 424 184 424 216C474 278 520 343 558 413C551 428 544 444 536 459L525 459C511 391 456 315 420 257C422 336 445 472 332 473C164 473 27 243 24 93C23 33 43 -16 111 -16C203 -16 297 64 357 131C357 96 348 -15 400 -16ZM284 437C371 437 358 224 357 164C314 113 233 28 162 28C109 28 98 70 99 115C100 202 175 437 284 437Z" stroke="rgb(0,0,0)" stroke-opacity="1" stroke-width="8" fill="rgb(0,0,0)" fill-opacity="1"></path></g></g></g></g><g><g><g><g transform="matrix(1,0,0,1,211.72454833984375,63.99073791503906)"><path transform="matrix(0.017,0,0,-0.017,0,0)" d="M63 278L63 281C118 423 114 402 279 408C237 307 190 180 187 71C183 -74 360 -4 411 59L411 65L397 75L397 74C374 56 347 33 318 33C198 33 313 370 326 412C371 413 431 411 476 420L476 463L108 463C81 448 56 310 48 278Z" stroke="rgb(0,0,0)" stroke-opacity="1" stroke-width="8" fill="rgb(0,0,0)" fill-opacity="1"></path></g></g></g></g><g><g><g><g><g><g><g transform="matrix(1,0,0,1,91.72454833984375,192.72918701171875)"><path transform="matrix(0.017,0,0,-0.017,0,0)" d="M88 -184C88 -184 182 -183 182 -183C182 -183 282 -184 282 -184L288 -178L288 -152L284 -147L246 -147C219 -147 197 -141 185 -131C176 -122 173 -108 173 -75L173 616C173 649 176 664 185 673C197 683 219 689 246 689L284 689L288 694L288 720L282 726L188 723L88 726C84 717 83 706 83 691C83 665 87 628 87 578L87 -44C87 -112 85 -140 79 -171Z" stroke="rgb(0,0,0)" stroke-opacity="1" stroke-width="8" fill="rgb(0,0,0)" fill-opacity="1"></path></g></g><g><g transform="matrix(1,0,0,1,97.3726806640625,191.98843383789062)"><path transform="matrix(0.017,0,0,-0.017,0,0)" d="M730 103L704 86C675 67 653 56 643 56C636 56 630 65 630 76C630 86 632 95 637 116L712 413C716 430 719 446 719 454C719 471 709 482 693 482C664 482 626 464 565 421C502 376 467 341 418 272L448 409C452 429 455 444 455 451C455 470 445 482 429 482C399 482 353 460 298 418C254 384 234 363 169 275L202 408C206 424 208 439 208 451C208 470 199 482 185 482C164 482 126 461 52 408L24 388L31 368C68 391 103 414 110 414C121 414 128 404 128 389C128 338 87 145 46 2L49 -9L117 6L139 108C163 219 190 278 245 338C287 384 332 414 360 414C367 414 371 406 371 393C371 358 349 244 308 69L292 2L297 -9L366 6L387 113C403 194 437 269 481 318C536 379 586 414 618 414C626 414 631 405 631 389C631 365 628 351 606 264C566 105 550 84 550 31C550 6 561 -9 580 -9C606 -9 642 12 740 85Z" stroke="rgb(0,0,0)" stroke-opacity="1" stroke-width="8" fill="rgb(0,0,0)" fill-opacity="1"></path></g></g><g><g transform="matrix(1,0,0,1,110.59030151367188,191.98843383789062)"><path transform="matrix(0.017,0,0,-0.017,0,0)" d="M204 123C177 114 159 108 106 93C99 17 74 -48 16 -144L30 -155L71 -136C152 -31 190 32 218 109Z" stroke="rgb(0,0,0)" stroke-opacity="1" stroke-width="8" fill="rgb(0,0,0)" fill-opacity="1"></path></g></g><g><g transform="matrix(1,0,0,1,118.21759033203125,191.98843383789062)"><path transform="matrix(0.017,0,0,-0.017,0,0)" d="M730 103L704 86C675 67 653 56 643 56C636 56 630 65 630 76C630 86 632 95 637 116L712 413C716 430 719 446 719 454C719 471 709 482 693 482C664 482 626 464 565 421C502 376 467 341 418 272L448 409C452 429 455 444 455 451C455 470 445 482 429 482C399 482 353 460 298 418C254 384 234 363 169 275L202 408C206 424 208 439 208 451C208 470 199 482 185 482C164 482 126 461 52 408L24 388L31 368C68 391 103 414 110 414C121 414 128 404 128 389C128 338 87 145 46 2L49 -9L117 6L139 108C163 219 190 278 245 338C287 384 332 414 360 414C367 414 371 406 371 393C371 358 349 244 308 69L292 2L297 -9L366 6L387 113C403 194 437 269 481 318C536 379 586 414 618 414C626 414 631 405 631 389C631 365 628 351 606 264C566 105 550 84 550 31C550 6 561 -9 580 -9C606 -9 642 12 740 85Z" stroke="rgb(0,0,0)" stroke-opacity="1" stroke-width="8" fill="rgb(0,0,0)" fill-opacity="1"></path></g></g><g><g transform="matrix(1,0,0,1,134.82638549804688,191.98843383789062)"><path transform="matrix(0.017,0,0,-0.017,0,0)" d="M604 241L604 300L364 300L364 538L305 538L305 300L65 300L65 241L305 241L305 0L364 0L364 241Z" stroke="rgb(0,0,0)" stroke-opacity="1" stroke-width="8" fill="rgb(0,0,0)" fill-opacity="1"></path></g></g><g><g transform="matrix(1,0,0,1,149.58334350585938,191.98843383789062)"><path transform="matrix(0.017,0,0,-0.017,0,0)" d="M24 388L31 368L63 389C100 412 103 414 110 414C121 414 128 404 128 389C128 338 87 145 46 2L53 -9C78 -2 101 4 123 8C142 134 163 199 209 268C263 352 338 414 383 414C394 414 400 405 400 390C400 372 397 351 389 319L337 107C328 70 324 47 324 31C324 6 335 -9 354 -9C380 -9 416 12 514 85L504 103L478 86C449 67 427 56 417 56C410 56 404 65 404 76C404 81 405 92 406 96L472 372C479 401 483 429 483 446C483 469 472 482 452 482C410 482 341 444 282 389C244 354 216 320 164 247L202 408C206 426 208 438 208 449C208 470 200 482 185 482C164 482 125 460 52 408Z" stroke="rgb(0,0,0)" stroke-opacity="1" stroke-width="8" fill="rgb(0,0,0)" fill-opacity="1"></path></g></g><g><g transform="matrix(1,0,0,1,162.41900634765625,191.98843383789062)"><path transform="matrix(0.017,0,0,-0.017,0,0)" d="M555 243L555 299L51 299L51 243Z" stroke="rgb(0,0,0)" stroke-opacity="1" stroke-width="8" fill="rgb(0,0,0)" fill-opacity="1"></path></g></g><g><g transform="matrix(1,0,0,1,176.09954833984375,191.98843383789062)"><path transform="matrix(0.017,0,0,-0.017,0,0)" d="M418 -3L418 27L366 30C311 33 301 44 301 96L301 700L60 598L67 548L217 614L217 96C217 44 206 33 152 30L96 27L96 -3C250 0 250 0 261 0C292 0 402 -3 418 -3Z" stroke="rgb(0,0,0)" stroke-opacity="1" stroke-width="8" fill="rgb(0,0,0)" fill-opacity="1"></path></g></g><g><g transform="matrix(1,0,0,1,184.5833740234375,192.72918701171875)"><path transform="matrix(0.017,0,0,-0.017,0,0)" d="M245 -184L254 -171C248 -140 246 -112 246 -44L246 578C246 628 250 665 250 691C250 706 249 717 245 726L51 726L45 720L45 694L49 689L87 689C114 689 136 683 148 673C157 664 160 649 160 616L160 -75C160 -108 157 -122 148 -131C136 -141 114 -147 87 -147L49 -147L45 -152L45 -178L51 -184Z" stroke="rgb(0,0,0)" stroke-opacity="1" stroke-width="8" fill="rgb(0,0,0)" fill-opacity="1"></path></g></g><g><g><g><g><g transform="matrix(1,0,0,1,190.74072265625,195.73102416992188)"><path transform="matrix(0.0119,0,0,-0.0119,0,0)" d="M934 662L934 692C889 691 854 689 814 689C778 689 738 691 698 692L698 662L742 659C785 655 793 651 793 569L793 102L789 102L312 692C294 691 276 689 258 689L138 689C96 689 51 691 17 692L17 662L61 659C102 656 112 648 112 569L112 120C112 41 102 31 61 29L17 27L17 -3C51 -2 96 -2 138 -1C178 -1 218 0 254 0C294 0 329 -2 374 -3L374 27L329 29C286 31 279 41 279 120L279 581L281 581L752 0L839 0L839 569C839 653 848 655 889 659ZM189 31C163 34 158 46 158 120L158 569C158 643 163 655 189 658C227 654 233 648 233 569L233 120C233 40 226 35 189 31Z" stroke="rgb(0,0,0)" stroke-opacity="1" stroke-width="8" fill="rgb(0,0,0)" fill-opacity="1"></path></g></g></g></g></g></g></g></g></g></g><g><g><g><g transform="matrix(1,0,0,1,221.72454833984375,143.58566284179688)"><path transform="matrix(0.017,0,0,-0.017,0,0)" d="M63 278L63 281C118 423 114 402 279 408C237 307 190 180 187 71C183 -74 360 -4 411 59L411 65L397 75L397 74C374 56 347 33 318 33C198 33 313 370 326 412C371 413 431 411 476 420L476 463L108 463C81 448 56 310 48 278Z" stroke="rgb(0,0,0)" stroke-opacity="1" stroke-width="8" fill="rgb(0,0,0)" fill-opacity="1"></path></g></g><g><g transform="matrix(1,0,0,1,233.94677734375,143.58566284179688)"><path transform="matrix(0.017,0,0,-0.017,0,0)" d="M342 271C342 352 277 417 195 417C112 417 47 352 47 271C47 188 112 124 195 124C277 124 342 188 342 271ZM304 271C304 209 254 161 195 161C133 161 85 209 85 271C85 331 133 380 195 380C254 380 304 331 304 271Z" stroke="rgb(0,0,0)" stroke-opacity="1" stroke-width="8" fill="rgb(0,0,0)" fill-opacity="1"></path></g></g><g><g transform="matrix(1,0,0,1,243.9351806640625,143.58566284179688)"><path transform="matrix(0.017,0,0,-0.017,0,0)" d="M400 -16C446 -16 513 54 545 84L545 97L532 97C513 79 489 55 462 55C417 55 424 184 424 216C474 278 520 343 558 413C551 428 544 444 536 459L525 459C511 391 456 315 420 257C422 336 445 472 332 473C164 473 27 243 24 93C23 33 43 -16 111 -16C203 -16 297 64 357 131C357 96 348 -15 400 -16ZM284 437C371 437 358 224 357 164C314 113 233 28 162 28C109 28 98 70 99 115C100 202 175 437 284 437Z" stroke="rgb(0,0,0)" stroke-opacity="1" stroke-width="8" fill="rgb(0,0,0)" fill-opacity="1"></path></g></g><g><g><g><g><g transform="matrix(1,0,0,1,255.023193359375,137.62918701171876)"><path transform="matrix(0.0119,0,0,-0.0119,0,0)" d="M555 243L555 299L51 299L51 243ZM1023 -3L1023 27L971 30C916 33 906 44 906 96L906 700L665 598L672 548L822 614L822 96C822 44 811 33 757 30L701 27L701 -3C855 0 855 0 866 0C897 0 1007 -3 1023 -3Z" stroke="rgb(0,0,0)" stroke-opacity="1" stroke-width="8" fill="rgb(0,0,0)" fill-opacity="1"></path></g></g></g></g></g></g></g><g><g><g><g transform="matrix(1,0,0,1,131.72454833984375,37.99537658691406)"><path transform="matrix(0.017,0,0,-0.017,0,0)" d="M934 662L934 692C889 691 854 689 814 689C778 689 738 691 698 692L698 662L742 659C785 655 793 651 793 569L793 102L789 102L312 692C294 691 276 689 258 689L138 689C96 689 51 691 17 692L17 662L61 659C102 656 112 648 112 569L112 120C112 41 102 31 61 29L17 27L17 -3C51 -2 96 -2 138 -1C178 -1 218 0 254 0C294 0 329 -2 374 -3L374 27L329 29C286 31 279 41 279 120L279 581L281 581L752 0L839 0L839 569C839 653 848 655 889 659ZM189 31C163 34 158 46 158 120L158 569C158 643 163 655 189 658C227 654 233 648 233 569L233 120C233 40 226 35 189 31Z" stroke="rgb(0,0,0)" stroke-opacity="1" stroke-width="8" fill="rgb(0,0,0)" fill-opacity="1"></path></g></g><g><g><g><g><g transform="matrix(1,0,0,1,148.40280151367188,41.73796691894531)"><path transform="matrix(0.0119,0,0,-0.0119,0,0)" d="M604 0L604 59L166 264L604 469L604 528L65 273L65 252ZM1398 103L1372 86C1343 67 1321 56 1311 56C1304 56 1298 65 1298 76C1298 86 1300 95 1305 116L1380 413C1384 430 1387 446 1387 454C1387 471 1377 482 1361 482C1332 482 1294 464 1233 421C1170 376 1135 341 1086 272L1116 409C1120 429 1123 444 1123 451C1123 470 1113 482 1097 482C1067 482 1021 460 966 418C922 384 902 363 837 275L870 408C874 424 876 439 876 451C876 470 867 482 853 482C832 482 794 461 720 408L692 388L699 368C736 391 771 414 778 414C789 414 796 404 796 389C796 338 755 145 714 2L717 -9L785 6L807 108C831 219 858 278 913 338C955 384 1000 414 1028 414C1035 414 1039 406 1039 393C1039 358 1017 244 976 69L960 2L965 -9L1034 6L1055 113C1071 194 1105 269 1149 318C1204 379 1254 414 1286 414C1294 414 1299 405 1299 389C1299 365 1296 351 1274 264C1234 105 1218 84 1218 31C1218 6 1229 -9 1248 -9C1274 -9 1310 12 1408 85Z" stroke="rgb(0,0,0)" stroke-opacity="1" stroke-width="8" fill="rgb(0,0,0)" fill-opacity="1"></path></g></g></g></g></g></g></g><g><g><g><g transform="matrix(1,0,0,1,281.72454833984375,38.99073791503906)"><path transform="matrix(0.017,0,0,-0.017,0,0)" d="M52 647L55 623C78 632 89 635 100 635C147 635 183 589 224 477C248 410 287 273 286 257C286 257 286 254 285 251L264 125C247 34 246 31 206 28L158 25L154 -3L207 -2C254 -1 277 0 293 0L390 -3L416 -3L419 25L370 28C343 30 334 37 334 57C334 63 335 73 336 78L362 246C371 301 436 419 510 512C568 586 610 616 669 626L675 697C602 678 549 636 474 536C413 452 374 384 346 310C271 616 223 704 131 705C128 702 90 672 67 658Z" stroke="rgb(0,0,0)" stroke-opacity="1" stroke-width="8" fill="rgb(0,0,0)" fill-opacity="1"></path></g></g></g></g><g><g><g><g transform="matrix(1,0,0,1,211.72454833984375,25.993057250976562)"><path transform="matrix(0.017,0,0,-0.017,0,0)" d="M171 -15C331 -15 431 100 434 257C436 343 410 361 345 404L345 407C398 407 457 403 511 411C518 431 521 451 524 474C485 453 364 467 313 457C150 424 28 329 28 153C28 48 59 -15 171 -15ZM367 267C367 168 329 13 203 13C111 13 103 112 104 182C105 292 143 412 274 412C359 412 367 328 367 267Z" stroke="rgb(0,0,0)" stroke-opacity="1" stroke-width="8" fill="rgb(0,0,0)" fill-opacity="1"></path></g></g></g></g><g><g><g><g><g><g><g transform="matrix(1,0,0,1,391.72454833984375,194.73150634765625)"><path transform="matrix(0.017,0,0,-0.017,0,0)" d="M88 -184C88 -184 182 -183 182 -183C182 -183 282 -184 282 -184L288 -178L288 -152L284 -147L246 -147C219 -147 197 -141 185 -131C176 -122 173 -108 173 -75L173 616C173 649 176 664 185 673C197 683 219 689 246 689L284 689L288 694L288 720L282 726L188 723L88 726C84 717 83 706 83 691C83 665 87 628 87 578L87 -44C87 -112 85 -140 79 -171Z" stroke="rgb(0,0,0)" stroke-opacity="1" stroke-width="8" fill="rgb(0,0,0)" fill-opacity="1"></path></g></g><g><g transform="matrix(1,0,0,1,397.3726806640625,193.99075317382812)"><path transform="matrix(0.017,0,0,-0.017,0,0)" d="M730 103L704 86C675 67 653 56 643 56C636 56 630 65 630 76C630 86 632 95 637 116L712 413C716 430 719 446 719 454C719 471 709 482 693 482C664 482 626 464 565 421C502 376 467 341 418 272L448 409C452 429 455 444 455 451C455 470 445 482 429 482C399 482 353 460 298 418C254 384 234 363 169 275L202 408C206 424 208 439 208 451C208 470 199 482 185 482C164 482 126 461 52 408L24 388L31 368C68 391 103 414 110 414C121 414 128 404 128 389C128 338 87 145 46 2L49 -9L117 6L139 108C163 219 190 278 245 338C287 384 332 414 360 414C367 414 371 406 371 393C371 358 349 244 308 69L292 2L297 -9L366 6L387 113C403 194 437 269 481 318C536 379 586 414 618 414C626 414 631 405 631 389C631 365 628 351 606 264C566 105 550 84 550 31C550 6 561 -9 580 -9C606 -9 642 12 740 85Z" stroke="rgb(0,0,0)" stroke-opacity="1" stroke-width="8" fill="rgb(0,0,0)" fill-opacity="1"></path></g></g><g><g transform="matrix(1,0,0,1,410.59027099609375,193.99075317382812)"><path transform="matrix(0.017,0,0,-0.017,0,0)" d="M204 123C177 114 159 108 106 93C99 17 74 -48 16 -144L30 -155L71 -136C152 -31 190 32 218 109Z" stroke="rgb(0,0,0)" stroke-opacity="1" stroke-width="8" fill="rgb(0,0,0)" fill-opacity="1"></path></g></g><g><g transform="matrix(1,0,0,1,418.21759033203125,193.99075317382812)"><path transform="matrix(0.017,0,0,-0.017,0,0)" d="M730 103L704 86C675 67 653 56 643 56C636 56 630 65 630 76C630 86 632 95 637 116L712 413C716 430 719 446 719 454C719 471 709 482 693 482C664 482 626 464 565 421C502 376 467 341 418 272L448 409C452 429 455 444 455 451C455 470 445 482 429 482C399 482 353 460 298 418C254 384 234 363 169 275L202 408C206 424 208 439 208 451C208 470 199 482 185 482C164 482 126 461 52 408L24 388L31 368C68 391 103 414 110 414C121 414 128 404 128 389C128 338 87 145 46 2L49 -9L117 6L139 108C163 219 190 278 245 338C287 384 332 414 360 414C367 414 371 406 371 393C371 358 349 244 308 69L292 2L297 -9L366 6L387 113C403 194 437 269 481 318C536 379 586 414 618 414C626 414 631 405 631 389C631 365 628 351 606 264C566 105 550 84 550 31C550 6 561 -9 580 -9C606 -9 642 12 740 85Z" stroke="rgb(0,0,0)" stroke-opacity="1" stroke-width="8" fill="rgb(0,0,0)" fill-opacity="1"></path></g></g><g><g transform="matrix(1,0,0,1,434.826416015625,193.99075317382812)"><path transform="matrix(0.017,0,0,-0.017,0,0)" d="M604 241L604 300L364 300L364 538L305 538L305 300L65 300L65 241L305 241L305 0L364 0L364 241Z" stroke="rgb(0,0,0)" stroke-opacity="1" stroke-width="8" fill="rgb(0,0,0)" fill-opacity="1"></path></g></g><g><g transform="matrix(1,0,0,1,449.5833740234375,193.99075317382812)"><path transform="matrix(0.017,0,0,-0.017,0,0)" d="M24 388L31 368L63 389C100 412 103 414 110 414C121 414 128 404 128 389C128 338 87 145 46 2L53 -9C78 -2 101 4 123 8C142 134 163 199 209 268C263 352 338 414 383 414C394 414 400 405 400 390C400 372 397 351 389 319L337 107C328 70 324 47 324 31C324 6 335 -9 354 -9C380 -9 416 12 514 85L504 103L478 86C449 67 427 56 417 56C410 56 404 65 404 76C404 81 405 92 406 96L472 372C479 401 483 429 483 446C483 469 472 482 452 482C410 482 341 444 282 389C244 354 216 320 164 247L202 408C206 426 208 438 208 449C208 470 200 482 185 482C164 482 125 460 52 408Z" stroke="rgb(0,0,0)" stroke-opacity="1" stroke-width="8" fill="rgb(0,0,0)" fill-opacity="1"></path></g></g><g><g transform="matrix(1,0,0,1,462.41900634765625,193.99075317382812)"><path transform="matrix(0.017,0,0,-0.017,0,0)" d="M555 243L555 299L51 299L51 243Z" stroke="rgb(0,0,0)" stroke-opacity="1" stroke-width="8" fill="rgb(0,0,0)" fill-opacity="1"></path></g></g><g><g transform="matrix(1,0,0,1,476.09954833984375,193.99075317382812)"><path transform="matrix(0.017,0,0,-0.017,0,0)" d="M418 -3L418 27L366 30C311 33 301 44 301 96L301 700L60 598L67 548L217 614L217 96C217 44 206 33 152 30L96 27L96 -3C250 0 250 0 261 0C292 0 402 -3 418 -3Z" stroke="rgb(0,0,0)" stroke-opacity="1" stroke-width="8" fill="rgb(0,0,0)" fill-opacity="1"></path></g></g><g><g transform="matrix(1,0,0,1,484.5833740234375,194.73150634765625)"><path transform="matrix(0.017,0,0,-0.017,0,0)" d="M245 -184L254 -171C248 -140 246 -112 246 -44L246 578C246 628 250 665 250 691C250 706 249 717 245 726L51 726L45 720L45 694L49 689L87 689C114 689 136 683 148 673C157 664 160 649 160 616L160 -75C160 -108 157 -122 148 -131C136 -141 114 -147 87 -147L49 -147L45 -152L45 -178L51 -184Z" stroke="rgb(0,0,0)" stroke-opacity="1" stroke-width="8" fill="rgb(0,0,0)" fill-opacity="1"></path></g></g><g><g><g><g><g transform="matrix(1,0,0,1,490.74078369140625,197.73334350585938)"><path transform="matrix(0.0119,0,0,-0.0119,0,0)" d="M934 662L934 692C889 691 854 689 814 689C778 689 738 691 698 692L698 662L742 659C785 655 793 651 793 569L793 102L789 102L312 692C294 691 276 689 258 689L138 689C96 689 51 691 17 692L17 662L61 659C102 656 112 648 112 569L112 120C112 41 102 31 61 29L17 27L17 -3C51 -2 96 -2 138 -1C178 -1 218 0 254 0C294 0 329 -2 374 -3L374 27L329 29C286 31 279 41 279 120L279 581L281 581L752 0L839 0L839 569C839 653 848 655 889 659ZM189 31C163 34 158 46 158 120L158 569C158 643 163 655 189 658C227 654 233 648 233 569L233 120C233 40 226 35 189 31Z" stroke="rgb(0,0,0)" stroke-opacity="1" stroke-width="8" fill="rgb(0,0,0)" fill-opacity="1"></path></g></g></g></g></g><g><g transform="matrix(1,0,0,1,506.46990966796875,193.99075317382812)"><path transform="matrix(0.017,0,0,-0.017,0,0)" d="M623 278L623 603L569 603L569 274C569 162 472 54 344 54C223 54 119 148 119 274L119 603L65 603L65 278C65 121 196 0 345 0C495 0 623 121 623 278Z" stroke="rgb(0,0,0)" stroke-opacity="1" stroke-width="8" fill="rgb(0,0,0)" fill-opacity="1"></path></g></g><g><g transform="matrix(1,0,0,1,521.5509643554688,193.99075317382812)"><path transform="matrix(0.017,0,0,-0.017,0,0)" d="M934 662L934 692C889 691 854 689 814 689C778 689 738 691 698 692L698 662L742 659C785 655 793 651 793 569L793 102L789 102L312 692C294 691 276 689 258 689L138 689C96 689 51 691 17 692L17 662L61 659C102 656 112 648 112 569L112 120C112 41 102 31 61 29L17 27L17 -3C51 -2 96 -2 138 -1C178 -1 218 0 254 0C294 0 329 -2 374 -3L374 27L329 29C286 31 279 41 279 120L279 581L281 581L752 0L839 0L839 569C839 653 848 655 889 659ZM189 31C163 34 158 46 158 120L158 569C158 643 163 655 189 658C227 654 233 648 233 569L233 120C233 40 226 35 189 31Z" stroke="rgb(0,0,0)" stroke-opacity="1" stroke-width="8" fill="rgb(0,0,0)" fill-opacity="1"></path></g></g><g><g><g><g><g transform="matrix(1,0,0,1,538.2291870117188,197.73334350585938)"><path transform="matrix(0.0119,0,0,-0.0119,0,0)" d="M604 0L604 59L166 264L604 469L604 528L65 273L65 252ZM1398 103L1372 86C1343 67 1321 56 1311 56C1304 56 1298 65 1298 76C1298 86 1300 95 1305 116L1380 413C1384 430 1387 446 1387 454C1387 471 1377 482 1361 482C1332 482 1294 464 1233 421C1170 376 1135 341 1086 272L1116 409C1120 429 1123 444 1123 451C1123 470 1113 482 1097 482C1067 482 1021 460 966 418C922 384 902 363 837 275L870 408C874 424 876 439 876 451C876 470 867 482 853 482C832 482 794 461 720 408L692 388L699 368C736 391 771 414 778 414C789 414 796 404 796 389C796 338 755 145 714 2L717 -9L785 6L807 108C831 219 858 278 913 338C955 384 1000 414 1028 414C1035 414 1039 406 1039 393C1039 358 1017 244 976 69L960 2L965 -9L1034 6L1055 113C1071 194 1105 269 1149 318C1204 379 1254 414 1286 414C1294 414 1299 405 1299 389C1299 365 1296 351 1274 264C1234 105 1218 84 1218 31C1218 6 1229 -9 1248 -9C1274 -9 1310 12 1408 85Z" stroke="rgb(0,0,0)" stroke-opacity="1" stroke-width="8" fill="rgb(0,0,0)" fill-opacity="1"></path></g></g></g></g></g></g></g></g></g></g><g><g><g><g transform="matrix(1,0,0,1,171.72454833984375,125.58798217773438)"><path transform="matrix(0.017,0,0,-0.017,0,0)" d="M400 -16C446 -16 513 54 545 84L545 97L532 97C513 79 489 55 462 55C417 55 424 184 424 216C474 278 520 343 558 413C551 428 544 444 536 459L525 459C511 391 456 315 420 257C422 336 445 472 332 473C164 473 27 243 24 93C23 33 43 -16 111 -16C203 -16 297 64 357 131C357 96 348 -15 400 -16ZM284 437C371 437 358 224 357 164C314 113 233 28 162 28C109 28 98 70 99 115C100 202 175 437 284 437Z" stroke="rgb(0,0,0)" stroke-opacity="1" stroke-width="8" fill="rgb(0,0,0)" fill-opacity="1"></path></g></g><g><g><g><g><g transform="matrix(1,0,0,1,182.8125,119.63147583007813)"><path transform="matrix(0.0119,0,0,-0.0119,0,0)" d="M555 243L555 299L51 299L51 243ZM1023 -3L1023 27L971 30C916 33 906 44 906 96L906 700L665 598L672 548L822 614L822 96C822 44 811 33 757 30L701 27L701 -3C855 0 855 0 866 0C897 0 1007 -3 1023 -3Z" stroke="rgb(0,0,0)" stroke-opacity="1" stroke-width="8" fill="rgb(0,0,0)" fill-opacity="1"></path></g></g></g></g></g></g></g><g><g><g><g transform="matrix(1,0,0,1,451.72454833984375,55.99305725097656)"><path transform="matrix(0.017,0,0,-0.017,0,0)" d="M416 25L416 -3C464 -1 509 0 551 0C591 0 636 -1 684 -3L684 25L659 27C618 30 605 37 591 61L420 368L641 620C671 653 680 659 706 662L734 664L734 692L620 689C608 689 594 689 505 692L505 664L538 662C570 660 583 655 583 643C583 632 578 623 560 601L399 405L295 604C286 622 281 634 281 642C281 654 294 660 324 662L361 664L361 692L315 691C274 690 244 689 228 689C211 689 181 690 140 691L95 692L95 664L121 662C170 657 182 650 202 613L348 343L110 61C95 43 72 31 48 28L20 25L20 -3C69 -1 110 0 145 0C181 0 221 -1 264 -3L264 25L232 28C194 32 177 38 177 50C177 58 181 67 187 75L369 306L488 80C497 62 502 49 502 40C502 32 495 29 470 29L454 28Z" stroke="rgb(0,0,0)" stroke-opacity="1" stroke-width="8" fill="rgb(0,0,0)" fill-opacity="1"></path></g></g><g><g transform="matrix(1,0,0,1,467.38427734375,55.99305725097656)"><path transform="matrix(0.017,0,0,-0.017,0,0)" d="M623 278L623 603L569 603L569 274C569 162 472 54 344 54C223 54 119 148 119 274L119 603L65 603L65 278C65 121 196 0 345 0C495 0 623 121 623 278Z" stroke="rgb(0,0,0)" stroke-opacity="1" stroke-width="8" fill="rgb(0,0,0)" fill-opacity="1"></path></g></g><g><g transform="matrix(1,0,0,1,482.46533203125,55.99305725097656)"><path transform="matrix(0.017,0,0,-0.017,0,0)" d="M52 647L55 623C78 632 89 635 100 635C147 635 183 589 224 477C248 410 287 273 286 257C286 257 286 254 285 251L264 125C247 34 246 31 206 28L158 25L154 -3L207 -2C254 -1 277 0 293 0L390 -3L416 -3L419 25L370 28C343 30 334 37 334 57C334 63 335 73 336 78L362 246C371 301 436 419 510 512C568 586 610 616 669 626L675 697C602 678 549 636 474 536C413 452 374 384 346 310C271 616 223 704 131 705C128 702 90 672 67 658Z" stroke="rgb(0,0,0)" stroke-opacity="1" stroke-width="8" fill="rgb(0,0,0)" fill-opacity="1"></path></g></g></g></g><g><g><g><g transform="matrix(1,0,0,1,486.72454833984375,131.67593383789062)"><path transform="matrix(0.017,0,0,-0.017,0,0)" d="M171 -15C331 -15 431 100 434 257C436 343 410 361 345 404L345 407C398 407 457 403 511 411C518 431 521 451 524 474C485 453 364 467 313 457C150 424 28 329 28 153C28 48 59 -15 171 -15ZM367 267C367 168 329 13 203 13C111 13 103 112 104 182C105 292 143 412 274 412C359 412 367 328 367 267Z" stroke="rgb(0,0,0)" stroke-opacity="1" stroke-width="8" fill="rgb(0,0,0)" fill-opacity="1"></path></g></g><g><g transform="matrix(1,0,0,1,499.5023193359375,131.67593383789062)"><path transform="matrix(0.017,0,0,-0.017,0,0)" d="M623 278L623 603L569 603L569 274C569 162 472 54 344 54C223 54 119 148 119 274L119 603L65 603L65 278C65 121 196 0 345 0C495 0 623 121 623 278Z" stroke="rgb(0,0,0)" stroke-opacity="1" stroke-width="8" fill="rgb(0,0,0)" fill-opacity="1"></path></g></g><g><svg x="515.763916015625" overflow="visible" y="114.42129516601562" height="23.993057250976562" width="8.495370864868164"><path d=" M 6.27 1.70 c 0.00 -0.06 -0.04 -0.08 -0.08 -0.08 c -0.03 0.00 -0.06 0.01 -0.08 0.02 c -2.55 1.34 -4.65 3.73 -4.65 9.40 v 0.60 h 1.53 v -0.60 c 0.00 -3.23 0.64 -7.03 3.31 -9.06 c 0.12 -0.09 0.13 -0.19 0.13 -0.28 z   M 1.44 11.64 v 0.72 h 1.53 v -0.72 z" style="fill:rgb(0,0,0);fill-opacity:1;stroke-width:1px;stroke:none;stroke-opacity:1;"></path><path d=" M 6.27 22.30 c 0.00 0.06 -0.04 0.08 -0.08 0.08 c -0.03 0.00 -0.06 -0.01 -0.08 -0.02 c -2.55 -1.34 -4.65 -3.73 -4.65 -9.40 v -0.60 h 1.53 v 0.60 c 0.00 3.23 0.64 7.03 3.31 9.06 c 0.12 0.09 0.13 0.19 0.13 0.28 z" style="fill:rgb(0,0,0);fill-opacity:1;stroke-width:1px;stroke:none;stroke-opacity:1;"></path></svg></g><g><g transform="matrix(1,0,0,1,522.5694580078125,131.67593383789062)"><path transform="matrix(0.017,0,0,-0.017,0,0)" d="M63 278L63 281C118 423 114 402 279 408C237 307 190 180 187 71C183 -74 360 -4 411 59L411 65L397 75L397 74C374 56 347 33 318 33C198 33 313 370 326 412C371 413 431 411 476 420L476 463L108 463C81 448 56 310 48 278Z" stroke="rgb(0,0,0)" stroke-opacity="1" stroke-width="8" fill="rgb(0,0,0)" fill-opacity="1"></path></g></g><g><g transform="matrix(1,0,0,1,534.7916870117188,131.67593383789062)"><path transform="matrix(0.017,0,0,-0.017,0,0)" d="M342 271C342 352 277 417 195 417C112 417 47 352 47 271C47 188 112 124 195 124C277 124 342 188 342 271ZM304 271C304 209 254 161 195 161C133 161 85 209 85 271C85 331 133 380 195 380C254 380 304 331 304 271Z" stroke="rgb(0,0,0)" stroke-opacity="1" stroke-width="8" fill="rgb(0,0,0)" fill-opacity="1"></path></g></g><g><g transform="matrix(1,0,0,1,544.7801513671875,131.67593383789062)"><path transform="matrix(0.017,0,0,-0.017,0,0)" d="M400 -16C446 -16 513 54 545 84L545 97L532 97C513 79 489 55 462 55C417 55 424 184 424 216C474 278 520 343 558 413C551 428 544 444 536 459L525 459C511 391 456 315 420 257C422 336 445 472 332 473C164 473 27 243 24 93C23 33 43 -16 111 -16C203 -16 297 64 357 131C357 96 348 -15 400 -16ZM284 437C371 437 358 224 357 164C314 113 233 28 162 28C109 28 98 70 99 115C100 202 175 437 284 437Z" stroke="rgb(0,0,0)" stroke-opacity="1" stroke-width="8" fill="rgb(0,0,0)" fill-opacity="1"></path></g></g><g><g><g><g><g transform="matrix(1,0,0,1,555.8681030273438,125.7194580078125)"><path transform="matrix(0.0119,0,0,-0.0119,0,0)" d="M555 243L555 299L51 299L51 243ZM1023 -3L1023 27L971 30C916 33 906 44 906 96L906 700L665 598L672 548L822 614L822 96C822 44 811 33 757 30L701 27L701 -3C855 0 855 0 866 0C897 0 1007 -3 1023 -3Z" stroke="rgb(0,0,0)" stroke-opacity="1" stroke-width="8" fill="rgb(0,0,0)" fill-opacity="1"></path></g></g></g></g></g><g><svg x="568.3333740234375" overflow="visible" y="114.42129516601562" height="23.993057250976562" width="8.495370864868164"><path d=" M 1.75 1.70 c 0.00 -0.06 0.04 -0.08 0.08 -0.08 c 0.03 0.00 0.06 0.01 0.08 0.02 c 2.55 1.34 4.65 3.73 4.65 9.40 v 0.60 h -1.53 v -0.60 c 0.00 -3.23 -0.64 -7.03 -3.31 -9.06 c -0.12 -0.09 -0.13 -0.19 -0.13 -0.28 z  M 6.58 11.64 v 0.72 h -1.53 v -0.72 z" style="fill:rgb(0,0,0);fill-opacity:1;stroke-width:1px;stroke:none;stroke-opacity:1;"></path><path d=" M 1.75 22.30 c 0.00 0.06 0.04 0.08 0.08 0.08 c 0.03 0.00 0.06 -0.01 0.08 -0.02 c 2.55 -1.34 4.65 -3.73 4.65 -9.40 v -0.60 h -1.53 v 0.60 c 0.00 3.23 -0.64 7.03 -3.31 9.06 c -0.12 0.09 -0.13 0.19 -0.13 0.28 z" style="fill:rgb(0,0,0);fill-opacity:1;stroke-width:1px;stroke:none;stroke-opacity:1;"></path></svg></g></g></g></svg>
</svg>
