<?xml version="1.0" standalone="no"?>
<!DOCTYPE svg PUBLIC "-//W3C//DTD SVG 20010904//EN"
 "http://www.w3.org/TR/2001/REC-SVG-20010904/DTD/svg10.dtd">
<svg version="1.0" xmlns="http://www.w3.org/2000/svg"
 width="300.000000pt" height="361.000000pt" viewBox="0 0 300.000000 361.000000"
 preserveAspectRatio="xMidYMid meet">
<metadata>
Created by potrace 1.10, written by Peter Selinger 2001-2011
</metadata>
<g transform="translate(0.000000,361.000000) scale(0.100000,-0.100000)"
fill="#ffffff" stroke="none">
<path d="M67 3603 c-2 -5 0 -57 3 -118 l7 -110 1 106 c1 66 6 109 14 117 9 9
8 12 -4 12 -9 0 -18 -3 -21 -7z"/>
<path d="M158 3594 c28 -20 26 -51 -6 -72 -24 -16 -24 -15 -21 21 2 20 0 39
-4 43 -4 4 -7 -6 -7 -22 0 -16 -7 -41 -14 -56 -8 -16 -11 -28 -6 -28 5 0 11
-33 13 -72 l3 -73 2 78 c1 42 5 77 8 77 3 0 26 -20 50 -45 29 -29 44 -53 44
-70 0 -15 4 -24 10 -20 21 13 8 46 -35 92 -49 52 -52 58 -30 67 8 3 20 17 27
31 9 21 8 28 -7 45 -10 11 -25 20 -34 20 -11 0 -9 -4 7 -16z"/>
<path d="M256 3594 c-9 -23 -7 -36 3 -30 12 8 21 46 11 46 -4 0 -11 -7 -14
-16z"/>
<path d="M287 3590 c-6 -24 8 -36 17 -14 8 22 7 34 -3 34 -5 0 -11 -9 -14 -20z"/>
<path d="M350 3579 c10 -34 17 -45 25 -38 6 7 -18 69 -26 69 -4 0 -4 -14 1
-31z"/>
<path d="M2820 3418 c-22 -37 -80 -180 -80 -200 0 -32 -18 14 -30 77 -12 68
-27 111 -36 103 -4 -5 44 -199 51 -206 9 -9 16 5 55 102 21 53 48 109 60 126
12 16 16 30 11 30 -6 0 -20 -15 -31 -32z"/>
<path d="M2383 3233 c-41 -8 -24 -21 20 -16 l42 4 -45 -40 c-25 -23 -39 -41
-32 -41 23 0 86 66 79 83 -6 17 -19 19 -64 10z"/>
<path d="M1465 3193 c-119 -7 -333 -33 -478 -58 -138 -24 -181 -26 -148 -6 9
6 10 11 2 15 -6 4 -16 -4 -23 -18 -7 -17 -19 -26 -35 -26 -12 0 -23 -5 -23
-11 0 -7 11 -9 26 -6 24 4 26 3 20 -26 -14 -71 -18 -167 -8 -180 13 -15 -49
-333 -64 -330 -5 1 -64 7 -132 13 -150 15 -151 14 -188 -109 -14 -47 -49 -160
-79 -251 -55 -168 -116 -367 -155 -498 -44 -152 -29 -161 220 -133 99 12 187
21 194 21 8 0 17 -16 21 -37 4 -21 13 -50 21 -65 13 -24 13 -39 0 -115 -8 -49
-22 -178 -31 -288 -16 -204 -11 -299 15 -315 11 -7 82 4 101 16 21 13 382 45
509 45 121 0 484 -23 531 -33 9 -2 14 12 16 47 2 28 6 82 9 121 l5 71 37 -3
c20 -1 154 -3 298 -4 261 -3 309 3 299 33 -10 31 -48 197 -54 240 l-8 47 61 1
c91 2 189 -2 208 -7 11 -3 23 5 34 21 16 24 16 35 5 103 -10 60 -10 93 -1 147
20 117 16 288 -9 382 -32 123 -29 226 10 338 43 125 49 238 19 400 -12 65 -30
140 -40 166 l-18 48 32 12 31 11 -45 14 c-71 22 -222 44 -312 45 -46 1 -96 4
-112 8 -25 5 -27 8 -14 19 9 7 40 26 69 42 30 16 49 30 42 30 -23 0 -59 -18
-108 -55 l-49 -38 -90 7 c-146 11 -418 44 -458 56 -37 11 -38 13 -38 55 0 43
-1 45 -27 43 -16 -1 -55 -3 -88 -5z m105 -38 c0 -14 -7 -28 -16 -32 -10 -4
-12 -8 -5 -12 8 -5 6 -20 -5 -49 -18 -45 -17 -45 -136 -57 -31 -3 -79 -15
-108 -26 -46 -17 -54 -18 -78 -5 -62 33 -116 44 -155 31 -90 -31 -103 -58 -67
-136 25 -56 26 -84 3 -74 -10 3 -30 9 -45 12 -25 5 -28 3 -28 -20 0 -19 -4
-25 -15 -21 -8 4 -15 1 -15 -5 0 -7 7 -14 15 -17 10 -4 15 -21 16 -53 0 -25 4
-67 8 -93 9 -57 8 -58 -101 -58 -78 0 -80 1 -75 23 6 25 63 327 70 370 2 15 0
27 -4 27 -5 0 -10 -15 -10 -32 -1 -27 -3 -29 -6 -8 -3 13 -2 57 2 96 l6 72 62
12 c34 6 82 15 107 20 145 28 388 56 508 59 71 1 72 1 72 -24z m67 -74 c21 -6
83 -15 138 -20 55 -6 138 -15 185 -20 47 -6 109 -11 137 -13 29 -2 53 -5 53
-8 0 -3 -9 -16 -20 -30 -22 -29 -25 -46 -8 -56 7 -5 9 -2 5 8 -3 9 6 29 22 48
27 33 29 33 102 31 181 -5 429 -41 382 -56 l-21 -7 18 -44 c30 -69 63 -259 64
-364 0 -82 -4 -109 -34 -198 -27 -83 -37 -102 -49 -96 -9 3 -45 8 -80 11 l-64
6 7 61 c20 195 20 230 -3 274 -28 54 -83 115 -138 154 -56 38 -225 113 -322
143 -42 12 -122 37 -179 55 -114 35 -223 60 -264 60 l-26 0 15 40 c10 25 21
39 29 36 7 -3 30 -9 51 -15z m-7 -86 c40 -5 279 -72 398 -111 93 -31 259 -107
304 -139 60 -44 125 -125 138 -174 6 -25 7 -63 0 -112 -5 -41 -10 -99 -10
-129 l0 -55 -257 3 c-159 2 -329 -3 -443 -11 -170 -14 -217 -14 -276 -2 -20 4
-21 9 -13 48 25 134 19 288 -11 307 -5 3 2 48 15 100 12 52 30 135 39 184 20
106 21 107 49 102 12 -3 42 -7 67 -11z m-512 -2 c-10 -2 -26 -2 -35 0 -10 3
-2 5 17 5 19 0 27 -2 18 -5z m397 -10 c-4 -10 -13 -56 -21 -103 -8 -47 -29
-137 -45 -199 -20 -73 -29 -127 -26 -148 5 -29 3 -33 -11 -29 -57 18 -124 26
-205 27 -50 1 -101 5 -112 10 -13 5 9 7 60 6 l80 -2 14 35 c59 155 34 195
-120 186 l-87 -5 -6 41 c-4 23 -16 63 -28 90 -19 45 -20 51 -5 65 22 23 172
28 204 8 29 -19 66 -19 105 1 17 9 60 19 97 24 110 13 114 12 106 -7z m-489
-213 c2 0 4 -4 4 -10 0 -5 -20 -10 -45 -10 -37 0 -45 3 -45 18 0 29 10 32 47
17 20 -8 37 -15 39 -15z m222 -37 c19 -12 22 -19 16 -51 -4 -20 -16 -56 -26
-79 l-19 -43 -67 0 c-37 0 -76 -3 -87 -6 -19 -5 -20 0 -20 93 l0 98 55 3 c30
2 56 5 59 7 7 7 66 -7 89 -22z m-214 -53 c9 -81 0 -127 -27 -134 -48 -13 -46
-18 -62 137 l-6 57 44 0 44 0 7 -60z m431 -107 c15 -80 -4 -284 -27 -292 -7
-2 -7 -5 0 -10 7 -4 3 -53 -13 -146 -12 -77 -28 -185 -35 -240 -19 -146 -37
-196 -80 -217 -30 -16 -37 -16 -57 -3 -28 19 -39 19 -24 1 10 -12 7 -15 -16
-20 -39 -8 -487 -46 -545 -46 l-48 0 0 129 c0 116 3 138 30 220 43 134 63 165
180 291 124 133 175 199 192 246 l12 34 126 0 c88 0 148 -6 205 -19 44 -11 81
-18 82 -17 2 1 -1 16 -6 32 -9 33 -3 106 9 99 4 -3 11 -22 15 -42z m-790 -38
c68 -11 127 -14 184 -9 65 5 85 4 92 -7 6 -10 9 -11 9 -1 0 7 13 12 30 12 34
0 36 -8 14 -53 -24 -46 -81 -116 -200 -245 -109 -118 -133 -157 -176 -295 -19
-60 -23 -93 -22 -203 l1 -130 -146 -14 c-80 -8 -175 -14 -211 -15 l-65 0 -3
33 c-3 32 7 77 52 222 13 41 36 116 51 165 15 50 47 149 70 220 24 72 56 171
70 220 15 50 32 96 37 103 14 16 91 15 213 -3z m1040 -286 c83 6 283 11 445
11 l296 0 11 -107 c7 -60 23 -158 37 -220 40 -174 33 -290 -26 -408 -23 -46
-96 -125 -115 -125 -7 0 -13 -6 -13 -14 0 -8 -8 -17 -17 -20 -10 -3 -131 -5
-269 -4 l-251 1 -7 106 c-4 68 -3 126 5 159 6 30 9 55 6 58 -13 13 -254 3
-360 -16 -147 -25 -143 -25 -113 3 28 26 50 106 66 242 5 50 19 143 30 208 11
65 20 122 20 126 0 5 24 4 53 -1 34 -7 103 -6 202 1z m855 1 c45 -1 51 -11 36
-60 -23 -79 -27 -100 -17 -100 6 0 13 17 16 38 12 69 24 91 18 32 -3 -40 1
-79 18 -140 24 -90 25 -126 17 -495 l-3 -160 -147 0 -147 0 53 55 c30 30 63
71 74 90 62 114 71 254 28 445 -17 72 -45 255 -46 289 0 16 5 18 38 12 20 -3
48 -6 62 -6z m-775 -617 c-8 -56 -8 -161 1 -220 l6 -43 -38 0 c-22 0 -71 7
-109 15 -108 24 -143 28 -123 16 9 -6 73 -21 142 -33 114 -21 126 -25 126 -44
0 -19 -8 -22 -72 -28 -39 -3 -142 -22 -227 -40 -212 -47 -311 -60 -390 -52
-75 6 -223 53 -279 88 -51 31 -118 94 -142 134 -19 30 -20 38 -9 98 l12 66 59
0 c52 0 330 23 418 35 19 3 89 10 155 15 66 6 154 17 195 24 41 8 122 14 179
15 l103 1 -7 -47z m-1126 -70 c-1 -16 -3 -41 -6 -57 -6 -36 -17 -21 -32 42 -8
40 -8 42 15 42 20 0 24 -5 23 -27z m84 -230 c57 -50 118 -82 219 -114 138 -43
222 -41 502 15 122 24 243 46 270 49 l48 5 -6 -92 c-4 -50 -11 -155 -15 -234
-4 -78 -10 -144 -12 -146 -2 -3 -40 -1 -84 4 -172 19 -345 30 -450 30 -144 0
-406 -30 -577 -66 -26 -6 -26 -5 -33 62 -8 71 17 432 37 536 l11 58 27 -38
c14 -20 43 -51 63 -69z m1527 6 c-65 -26 -169 -39 -316 -39 l-154 0 0 25 0 25
248 -1 c175 0 240 -3 222 -10z m75 -31 c4 -24 18 -89 32 -146 14 -57 22 -107
18 -110 -10 -10 -392 -15 -513 -7 l-104 7 6 59 c3 32 9 86 12 118 l6 59 196 4
c186 3 200 5 257 30 33 14 65 26 72 27 6 0 14 -18 18 -41z"/>
<path d="M127 3030 c-31 -66 -59 -130 -62 -143 -9 -36 18 -57 73 -57 26 0 57
-3 70 -6 13 -4 22 -2 22 5 0 7 -23 11 -64 11 -106 0 -108 17 -23 190 28 58 53
108 55 113 2 4 -1 7 -6 7 -5 0 -34 -54 -65 -120z"/>
<path d="M305 2910 c-3 -5 0 -10 8 -10 7 0 23 -11 35 -24 23 -27 20 -32 -35
-60 -18 -9 -33 -21 -33 -26 0 -10 86 36 96 51 3 6 -1 18 -8 27 -27 31 -30 42
-12 35 12 -4 15 -3 10 5 -9 15 -52 16 -61 2z"/>
<path d="M2551 1256 c-15 -18 -58 -143 -63 -181 -2 -22 2 -31 15 -33 9 -2 17
1 17 7 0 6 -4 11 -10 11 -5 0 -7 14 -3 33 7 39 2 33 42 42 l34 7 -6 -56 c-3
-34 -2 -54 4 -51 5 4 9 28 9 56 0 48 1 49 31 49 18 0 28 4 24 10 -4 6 -15 8
-25 5 -14 -5 -18 2 -24 44 -7 55 -26 80 -45 57z m29 -68 c0 -26 -4 -38 -14
-38 -8 0 -22 -3 -31 -7 -19 -7 -17 7 12 77 11 27 16 32 23 20 5 -8 10 -32 10
-52z"/>
<path d="M466 358 c8 -24 17 -72 20 -108 7 -90 35 -220 47 -220 5 0 6 10 3 22
-9 29 -23 115 -34 201 -5 46 -5 67 2 67 6 0 3 5 -6 11 -10 5 -18 18 -17 27 0
14 2 13 9 -3 5 -11 9 -14 9 -7 1 22 -19 52 -34 52 -12 0 -12 -6 1 -42z"/>
<path d="M1466 368 c-19 -27 -20 -44 -4 -54 7 -5 9 -2 5 8 -3 9 1 24 8 35 14
17 14 17 15 -6 0 -23 1 -23 13 -7 12 17 15 16 45 -9 18 -15 32 -22 32 -17 0
14 -49 52 -66 52 -8 0 -14 5 -14 10 0 17 -18 11 -34 -12z"/>
<path d="M2082 365 c-30 -7 -56 -16 -59 -19 -15 -14 7 -13 77 5 41 11 87 17
103 14 15 -2 27 0 27 5 0 14 -84 11 -148 -5z"/>
<path d="M634 353 c3 -15 -1 -23 -10 -23 -8 0 -14 -5 -14 -11 0 -6 9 -8 23 -3
27 8 23 4 32 34 7 22 6 23 -8 12 -12 -10 -16 -10 -21 0 -3 7 -4 3 -2 -9z"/>
<path d="M641 303 c-18 -18 -31 -37 -27 -40 3 -4 12 2 20 12 12 17 13 17 19
-4 3 -11 10 -21 16 -21 15 0 14 23 -1 38 -16 16 8 35 35 28 11 -3 17 0 14 7
-7 23 -43 14 -76 -20z"/>
<path d="M1276 291 c-2 -3 -10 -40 -17 -82 -13 -77 -9 -109 12 -109 8 0 9 3 0
14 -13 15 -3 109 10 100 5 -3 6 8 3 24 -4 18 -1 32 6 37 8 5 10 -17 4 -89 -5
-71 -4 -96 5 -96 8 0 10 11 7 32 -5 30 -1 36 37 63 50 36 61 77 27 95 -25 13
-88 21 -94 11z m96 -35 c12 -18 10 -23 -24 -52 l-33 -27 -3 37 c-5 54 3 69 30
60 13 -4 26 -12 30 -18z"/>
<path d="M2103 283 c-17 -6 -18 -203 -2 -203 7 0 9 15 5 43 l-6 44 34 -2 c47
-3 53 -8 60 -65 4 -27 11 -50 16 -50 15 0 12 56 -5 97 -11 25 -12 40 -5 47 28
28 -14 97 -58 95 -15 0 -33 -3 -39 -6z m71 -22 c10 -11 16 -30 14 -42 -3 -20
-9 -23 -45 -24 -41 -1 -42 -1 -36 29 2 17 6 37 9 44 5 18 39 15 58 -7z m-19
-81 c3 -5 -1 -10 -9 -10 -9 0 -16 5 -16 10 0 6 4 10 9 10 6 0 13 -4 16 -10z"/>
<path d="M2030 258 c-5 -117 -4 -178 3 -178 4 0 7 43 7 95 0 52 -2 95 -5 95
-3 0 -5 -6 -5 -12z"/>
<path d="M419 211 c-87 -43 -191 -132 -170 -145 6 -4 11 -1 11 6 1 19 86 84
158 120 34 17 62 32 62 34 0 9 -27 2 -61 -15z"/>
<path d="M860 192 c0 -5 7 -15 15 -22 8 -7 15 -8 15 -2 0 5 -7 15 -15 22 -8 7
-15 8 -15 2z"/>
<path d="M1760 185 c0 -3 27 -17 60 -32 33 -14 60 -29 60 -34 0 -8 -44 -22
-108 -35 -18 -4 -32 -11 -32 -15 0 -17 151 29 158 48 2 7 -24 26 -57 43 -58
29 -81 36 -81 25z"/>
<path d="M1520 160 c0 -6 36 -10 88 -10 60 0 82 3 72 10 -20 13 -160 13 -160
0z"/>
<path d="M1320 156 c0 -8 60 -95 71 -101 16 -10 10 2 -22 49 -28 42 -49 64
-49 52z"/>
<path d="M850 80 c0 -5 5 -10 10 -10 6 0 10 5 10 10 0 6 -4 10 -10 10 -5 0
-10 -4 -10 -10z"/>
</g>
</svg>
