<?xml version="1.0" standalone="no"?>
<!DOCTYPE svg PUBLIC "-//W3C//DTD SVG 20010904//EN"
 "http://www.w3.org/TR/2001/REC-SVG-20010904/DTD/svg10.dtd">
<svg version="1.0" xmlns="http://www.w3.org/2000/svg"
 width="300.000000pt" height="361.000000pt" viewBox="0 0 300.000000 361.000000"
 preserveAspectRatio="xMidYMid meet">
<metadata>
Created by potrace 1.10, written by Peter Selinger 2001-2011
</metadata>
<g transform="translate(0.000000,361.000000) scale(0.100000,-0.100000)"
fill="#000000" stroke="none">
<path d="M67 3603 c-2 -5 0 -57 3 -118 l7 -110 1 106 c1 66 6 109 14 117 9 9
8 12 -4 12 -9 0 -18 -3 -21 -7z"/>
<path d="M158 3594 c29 -20 25 -51 -7 -73 l-24 -16 6 37 c3 21 1 40 -4 43 -5
4 -9 -5 -9 -19 0 -13 -4 -35 -8 -48 -4 -13 -5 -59 -2 -103 l7 -80 1 78 c1 42
4 77 6 77 3 0 25 -21 50 -46 30 -30 46 -54 46 -70 0 -14 4 -22 10 -19 22 13 8
49 -35 93 -44 45 -54 62 -35 62 5 0 17 11 26 25 22 33 6 75 -28 75 l-22 0 22
-16z"/>
<path d="M340 3606 c0 -16 24 -66 32 -66 6 0 7 8 3 18 -4 9 -10 25 -12 35 -4
14 -23 25 -23 13z"/>
<path d="M2816 3412 c-13 -21 -37 -73 -52 -116 -15 -42 -30 -73 -34 -69 -4 4
-15 44 -24 88 -17 80 -22 93 -31 83 -6 -5 40 -196 49 -206 11 -10 23 11 55 98
18 47 43 102 57 123 13 20 20 37 14 37 -5 0 -21 -17 -34 -38z"/>
<path d="M2383 3233 c-42 -8 -24 -23 20 -17 l42 7 -24 -26 c-13 -15 -32 -29
-43 -33 -10 -3 -18 -10 -18 -15 0 -18 20 -9 60 27 32 29 38 39 29 50 -11 14
-24 15 -66 7z"/>
<path d="M1475 3193 c-137 -7 -307 -28 -464 -54 -162 -28 -205 -30 -172 -10 9
6 10 11 2 15 -6 4 -16 -4 -23 -18 -7 -17 -19 -26 -35 -26 -12 0 -23 -5 -23
-11 0 -7 11 -9 26 -6 22 4 25 2 20 -17 -11 -47 -18 -174 -9 -190 6 -10 -2 -68
-21 -168 -16 -84 -31 -155 -33 -157 -1 -2 -61 2 -133 9 -122 12 -132 11 -150
-5 -12 -11 -36 -68 -56 -134 -20 -64 -54 -170 -76 -236 -81 -244 -167 -540
-168 -576 0 -14 9 -34 20 -44 19 -17 26 -17 182 -1 90 9 182 20 204 23 41 5
41 5 49 -33 3 -21 13 -51 22 -67 12 -23 13 -38 4 -71 -5 -23 -15 -95 -21 -161
-5 -66 -15 -173 -21 -238 -11 -127 -5 -220 17 -242 10 -10 23 -11 55 -4 23 6
45 12 49 14 20 12 389 46 504 46 126 0 348 -14 482 -30 35 -4 66 -5 69 -3 3 3
5 31 5 62 0 76 11 180 19 176 6 -4 460 -10 552 -7 79 2 81 8 48 146 -15 66
-28 133 -29 148 l0 29 140 -3 c101 -3 143 0 151 8 9 9 14 71 17 205 7 294 4
351 -18 442 -27 112 -27 228 1 297 32 83 51 178 50 254 -1 90 -37 298 -61 353
l-19 43 29 6 c36 7 39 21 8 28 -13 3 -52 12 -88 20 -36 8 -134 20 -219 25 -85
5 -156 11 -158 13 -5 5 64 52 99 68 15 6 25 16 22 20 -7 11 -49 -11 -109 -57
l-48 -36 -86 6 c-153 11 -409 43 -463 57 -37 9 -38 11 -38 54 0 43 -1 45 -27
43 -16 -1 -50 -3 -78 -5z m95 -38 c0 -14 -6 -28 -14 -31 -8 -3 -12 -12 -9 -19
4 -12 -14 -85 -21 -85 -41 0 -185 -26 -225 -41 -39 -14 -57 -17 -67 -9 -7 7
-41 20 -75 30 -62 19 -63 19 -108 -1 -85 -37 -88 -46 -47 -141 22 -50 21 -72
-1 -63 -10 4 -30 10 -45 13 -25 4 -28 1 -28 -22 0 -18 -4 -24 -15 -20 -19 8
-20 -12 -1 -23 10 -6 15 -35 18 -103 l3 -95 -87 -3 c-49 -1 -88 -1 -88 1 0 9
41 214 50 252 17 65 27 165 18 165 -4 0 -8 -15 -9 -32 0 -18 -3 -27 -6 -20 -3
8 -2 51 2 97 7 83 7 83 38 89 214 43 515 82 650 85 65 1 67 0 67 -24z m50 -69
c25 -8 136 -23 245 -35 110 -12 219 -24 243 -27 l42 -5 -20 -29 c-21 -30 -26
-60 -10 -60 6 0 10 7 10 16 0 9 9 29 21 45 19 28 24 29 95 29 136 0 394 -34
394 -52 0 -4 -6 -8 -14 -8 -11 0 -9 -14 9 -67 44 -127 69 -311 56 -408 -9 -60
-51 -209 -64 -221 -1 -2 -38 0 -81 3 l-78 6 6 56 c19 163 19 237 1 275 -55
115 -199 212 -430 291 -135 46 -361 108 -426 118 l-76 11 15 38 c8 21 15 38
16 38 1 0 21 -6 46 -14z m190 -137 c256 -77 295 -91 416 -149 112 -54 126 -64
178 -127 70 -84 77 -110 66 -221 -5 -48 -11 -106 -12 -130 l-3 -43 -260 1
c-143 0 -325 -5 -405 -11 -158 -13 -276 -15 -307 -5 -18 6 -18 10 -7 89 20
131 14 249 -15 266 -7 4 -2 38 13 96 13 50 31 134 41 187 9 53 19 98 21 100
11 11 154 -16 274 -53z m-295 34 c-3 -10 -15 -63 -25 -118 -10 -55 -31 -145
-45 -199 -17 -63 -25 -112 -21 -134 4 -28 2 -33 -11 -28 -41 16 -107 26 -186
27 -47 1 -101 5 -119 9 -24 6 -11 8 47 7 l80 -2 13 35 c24 62 41 132 36 144
-3 7 -19 20 -36 30 -26 16 -45 18 -118 13 l-88 -6 -6 41 c-4 23 -16 63 -28 90
-19 45 -20 51 -5 65 22 22 161 28 201 8 37 -19 64 -19 111 1 34 14 120 29 184
33 18 1 22 -3 16 -16z m-511 -204 c34 -16 23 -29 -25 -29 -32 0 -39 3 -39 20
0 23 25 26 64 9z m244 -45 c19 -13 22 -21 16 -52 -4 -20 -16 -56 -26 -79 l-19
-43 -67 0 c-37 0 -77 -3 -89 -6 -21 -6 -22 -4 -16 27 9 42 9 63 0 116 -8 49
-7 50 103 52 54 1 82 -3 98 -15z m-214 -49 c7 -65 -2 -135 -18 -135 -6 0 -21
-3 -32 -6 -20 -5 -22 0 -28 58 -4 35 -10 80 -13 101 l-6 37 45 0 45 0 7 -55z
m430 -106 c9 -47 7 -158 -4 -220 -5 -30 -12 -70 -14 -89 -3 -19 -14 -93 -25
-165 -11 -71 -27 -177 -35 -235 -21 -147 -33 -181 -76 -202 -30 -16 -37 -16
-57 -3 -28 19 -39 19 -23 1 9 -12 6 -16 -22 -21 -46 -8 -494 -45 -545 -45
l-43 0 0 118 c0 133 19 226 68 334 22 48 57 95 137 181 135 146 195 223 202
260 l6 30 146 -6 c85 -3 171 -12 205 -22 32 -8 61 -13 64 -11 2 3 0 18 -4 33
-11 32 -7 93 5 93 5 0 11 -14 15 -31z m-794 -45 c70 -10 133 -13 189 -8 65 5
85 4 92 -7 6 -10 9 -11 9 -1 0 7 13 12 30 12 35 0 37 -8 11 -58 -24 -46 -74
-106 -200 -242 -110 -118 -116 -128 -163 -261 -31 -89 -33 -101 -33 -230 l1
-135 -141 -13 c-281 -26 -274 -26 -281 -6 -14 34 32 202 175 640 33 99 67 207
76 240 9 33 22 66 27 73 14 16 80 15 208 -4z m1055 -285 c88 6 289 11 446 11
l286 0 6 -78 c3 -43 20 -145 37 -226 43 -212 38 -312 -22 -429 -24 -48 -96
-127 -114 -127 -8 0 -14 -7 -14 -15 0 -8 -13 -16 -32 -20 -40 -6 -494 -2 -502
5 -8 9 -11 224 -3 272 l8 46 -78 4 c-94 4 -197 -5 -318 -26 -114 -20 -111 -20
-81 7 25 23 48 100 61 202 3 28 18 125 32 216 l25 166 52 -10 c33 -6 107 -5
211 2z m839 1 c51 0 57 -9 42 -60 -23 -78 -27 -100 -17 -100 5 0 16 28 24 63
15 62 15 62 10 12 -3 -35 3 -88 22 -170 25 -109 26 -130 19 -235 -4 -63 -8
-178 -8 -255 l-1 -140 -142 0 c-79 0 -143 2 -143 3 0 2 23 27 51 55 121 122
152 298 94 537 -13 55 -45 262 -45 293 0 5 14 7 31 3 17 -3 46 -6 63 -6z
m-770 -622 c-10 -66 -11 -95 -1 -185 l7 -73 -31 0 c-17 0 -76 9 -131 20 -104
22 -154 22 -83 1 22 -6 86 -19 143 -28 92 -16 102 -19 102 -39 0 -19 -7 -22
-71 -28 -39 -3 -143 -22 -232 -41 -314 -66 -377 -68 -538 -15 -128 43 -215
104 -273 192 -15 22 -15 33 -4 90 l12 65 121 7 c66 3 185 13 265 21 80 9 195
20 255 25 61 6 144 16 185 24 41 7 122 14 178 15 l104 1 -8 -52z m-1125 -65
c-1 -16 -4 -41 -7 -58 l-5 -30 -13 30 c-21 47 -18 85 6 85 15 0 20 -6 19 -27z
m176 -295 c169 -86 312 -98 560 -48 213 43 294 58 343 63 50 6 47 34 27 -238
-8 -110 -15 -208 -15 -217 0 -14 -6 -16 -27 -13 -70 12 -400 35 -505 35 -118
0 -439 -32 -513 -51 -78 -21 -88 -18 -98 26 -5 22 -6 81 -3 130 11 197 27 373
37 422 l10 52 67 -68 c37 -38 90 -80 117 -93z m1418 67 c-50 -21 -167 -34
-315 -33 -138 1 -138 1 -138 24 l0 24 243 0 c215 -1 238 -2 210 -15z m91 -27
c4 -24 18 -89 32 -146 14 -57 23 -106 19 -110 -10 -10 -372 -15 -503 -7 l-114
7 6 47 c3 25 8 79 12 119 l6 72 178 0 c152 0 188 3 246 21 38 11 73 25 79 30
19 19 33 8 39 -33z"/>
<path d="M143 3068 c-86 -172 -97 -223 -50 -232 59 -12 137 -15 137 -6 0 6
-26 10 -58 10 -34 0 -66 6 -77 14 -17 12 -18 18 -7 52 6 22 34 84 62 138 54
108 54 106 42 106 -5 0 -27 -37 -49 -82z"/>
<path d="M305 2910 c-3 -5 1 -10 9 -10 14 0 46 -36 46 -52 0 -4 -18 -17 -40
-28 -22 -11 -40 -25 -40 -30 0 -6 23 2 50 17 54 29 58 37 34 71 -9 13 -11 22
-4 22 6 0 8 5 5 10 -3 6 -17 10 -30 10 -13 0 -27 -4 -30 -10z"/>
<path d="M2531 1217 c-28 -68 -52 -158 -45 -169 7 -11 34 -10 34 2 0 6 -5 10
-10 10 -10 0 -3 48 9 62 3 4 19 10 35 14 l29 7 -7 -59 c-5 -40 -3 -55 3 -49 6
6 12 31 15 55 3 40 7 46 32 51 23 5 26 7 12 13 -9 4 -22 5 -28 1 -6 -4 -10 6
-10 27 0 36 -19 79 -36 85 -6 2 -21 -20 -33 -50z m49 -29 c0 -35 -2 -38 -29
-38 -30 0 -30 0 -17 33 7 17 16 41 20 52 10 29 26 1 26 -47z"/>
<path d="M466 358 c8 -24 19 -83 24 -133 10 -110 28 -195 41 -195 12 0 11 12
0 43 -10 25 -32 202 -33 262 -1 38 -14 65 -33 65 -12 0 -12 -6 1 -42z"/>
<path d="M1460 358 c-19 -31 -18 -48 2 -48 5 0 8 6 5 13 -3 7 1 21 9 32 13 18
14 18 14 -5 0 -22 1 -23 13 -6 12 17 15 16 45 -9 18 -15 32 -23 32 -18 0 15
-75 73 -95 73 -3 0 -14 -14 -25 -32z"/>
<path d="M2082 365 c-30 -7 -56 -16 -59 -19 -14 -14 5 -13 57 1 30 8 78 15
107 15 29 1 50 5 47 9 -7 13 -90 9 -152 -6z"/>
<path d="M634 353 c3 -15 -1 -23 -10 -23 -8 0 -14 -5 -14 -11 0 -6 6 -9 14 -6
25 10 28 -7 4 -24 -12 -10 -19 -21 -15 -26 5 -4 12 -1 17 7 8 13 11 12 24 -5
19 -26 34 -11 17 17 -14 23 -2 38 32 38 10 0 15 5 12 10 -3 6 -17 10 -30 10
-19 0 -23 4 -18 18 6 14 4 15 -9 4 -13 -10 -17 -10 -22 0 -3 7 -4 3 -2 -9z"/>
<path d="M1275 286 c-29 -99 -33 -186 -9 -186 13 0 14 3 5 14 -13 15 -3 109
10 100 5 -3 6 9 3 26 -4 19 -2 30 5 30 9 0 10 -24 5 -90 -5 -67 -4 -90 5 -90
8 0 10 11 5 35 -3 19 -4 35 0 35 3 0 24 -25 47 -56 22 -30 43 -53 46 -51 5 6
-27 55 -60 94 -19 21 -19 22 11 37 46 24 58 77 21 97 -29 15 -90 19 -94 5z
m86 -26 l24 -20 -35 -32 -35 -32 -3 28 c-4 35 5 76 17 76 5 0 19 -9 32 -20z"/>
<path d="M2103 283 c-17 -6 -18 -203 -2 -203 8 0 10 15 6 46 -4 37 -2 44 10
40 8 -3 25 -6 38 -6 25 0 29 -7 40 -73 3 -20 10 -37 15 -37 16 0 11 68 -6 102
-11 22 -13 33 -5 41 17 17 13 42 -10 71 -20 25 -54 33 -86 19z m73 -28 c25
-38 15 -60 -29 -60 -36 0 -37 1 -37 36 0 20 3 39 7 42 14 15 43 6 59 -18z"/>
<path d="M2030 258 c-3 -102 -2 -179 3 -185 4 -3 7 39 7 95 0 56 -2 102 -5
102 -3 0 -5 -6 -5 -12z"/>
<path d="M432 220 c-25 -10 -120 -75 -166 -113 -18 -14 -26 -28 -22 -36 5 -8
14 -3 29 15 23 30 162 124 183 124 7 0 16 5 19 10 8 12 -12 12 -43 0z"/>
<path d="M1760 185 c0 -3 27 -17 60 -32 33 -14 60 -29 60 -33 0 -5 -31 -16
-70 -26 -70 -18 -99 -39 -37 -27 59 11 122 38 122 53 0 8 -25 27 -55 42 -52
26 -80 34 -80 23z"/>
<path d="M1520 160 c0 -6 35 -10 86 -10 54 0 83 4 79 10 -3 6 -42 10 -86 10
-46 0 -79 -4 -79 -10z"/>
</g>
</svg>
